<svg xmlns="http://www.w3.org/2000/svg" viewBox="0 0 2048 2048" width="512" height="512"><path transform="translate(792,191)" d="m0 0h16l27 3 20 5 21 8 21 11 13 9 10 8 10 9 6 5v2l4 2 10 9 16 10 13 6 11 4 22 4h25l16-3 18-6 16-8 14-10 10-9 7-7 8-7 14-11 14-9 17-9 15-6 22-6 19-3 14-1h15l21 2 19 4 18 6 18 8 11 6 15 10 10 8 12 11 8 8 11 14 10 15 9 17 8 21 6 23 18 96 1 7h245l25 2 19 4 17 6 17 8 11 7 12 9 10 9 12 12 11 15 8 13 8 18 5 15 3 12 2 17 1 64-1 941h65l15 2 11 4 10 6 10 9 7 8 7 14 3 11v28l-4 26-5 17-8 21-9 17-10 15-8 10-11 12-10 10-14 11-15 10-15 8-23 9-19 5-18 3-12 1h-1559l-26-3-22-6-16-6-16-8-14-8-17-13-13-12-8-8-9-11-10-14-10-18-8-18-6-20-4-20-2-21v-9l3-17 8-16 9-10 7-7 15-8 11-3 9-1h66v-996l2-21 5-21 7-19 9-17 11-16 11-12 14-14 17-12 14-8 14-6 17-5 14-3 24-2h247l1-8 18-96 7-26 9-22 8-14 9-13 10-13 20-20 19-14 16-9 14-7 24-8 19-4zm3 65-18 2-16 4-16 7-14 8-13 11-3 2v2h-2l-7 8-10 14-8 15-5 15-5 23-13 69-24 128-12 63-9 49-5 27h817l-1-10-18-97-12-64-18-95-15-80-5-19-7-17-10-16-13-15-12-10-16-10-16-7-19-5-17-2h-10l-18 2-16 4-16 7-14 8-11 9-5 4v2l-4 2v2l-4 2-9 9-19 14-18 10-17 8-23 7-21 4-10 1h-30l-22-3-21-6-18-7-16-8-14-9-13-10-15-14-11-10-14-10-16-8-14-5-12-3-17-2zm-445 256-18 2-14 4-16 8-11 8-7 6-9 11-7 11-6 13-4 15-1 6-1 19v984l60 1 3-1 1-994 2-8 4-8 5-5 7-5 5-2 6-1 224-1 5-25 6-33v-5zm1113 0 2 14 9 47 1 2 220 1 12 2 8 4 8 9 3 6 1 4 1 58v940l60 1 3-1v-1e3l-3-16-5-14-9-16-10-12-11-9-14-9-15-6-15-3-12-1zm-699 320-24 2-20 4-20 6-20 9-15 9-11 8-10 8-12 11-12 13-13 18-9 16-6 12-7 19-6 24-97 1-11 1-8 4-8 7-5 10-1 4v12l3 9 6 8 7 5 10 3 103 1 3 9 5 19 8 20 11 21 12 17 10 11 7 8 11 10 16 12 15 9 21 10 21 7 19 4 16 2h29l22-3 17-4 15-5 18-8 11-6 18-12 11-9 22-22 12-17 9-15 8-17 8-24 4-16 1-1h132l3 9 5 19 8 20 11 21 12 17 10 11 7 8 11 10 16 12 15 9 21 10 21 7 19 4 16 2h29l22-3 17-4 15-5 18-8 11-6 18-12 11-9 22-22 12-17 9-15 8-17 8-24 4-16 1-1 103-1 11-4 6-4v-2h2l5-8 2-6v-14l-4-10-8-9-8-4-13-2-97-1-6-23-8-22-12-23-11-16-12-14-13-13-14-11-15-10-21-11-22-8-21-5-16-2-22-1-24 2-20 4-20 6-20 9-15 9-11 8-10 8-12 11-12 13-13 18-9 16-6 12-8 22-5 21h-134l-6-23-8-22-12-23-11-16-12-14-13-13-14-11-15-10-21-11-22-8-21-5-16-2zm-636 832 2 21 4 17 6 16 10 18 9 11 3 4h2l2 4 9 8 14 10 15 8 18 6 15 3 8 1h1559l18-3 21-7 17-9 11-8 10-9 9-9 10-14 7-12 6-15 5-22 1-6v-13h-721l-8 7-49 49-11 6-6 1h-202l-11-4-12-11h-2l-2-4-43-43-2-1z"></path><path transform="translate(1790,1695)" d="m0 0 13 2 8 4 7 7 6 12v16l-6 12-7 7-9 4-4 1h-13l-10-4-9-8-6-12v-16l4-10 6-7 10-6z"></path><path transform="translate(1662,1695)" d="m0 0 13 2 8 4 7 7 5 9 1 4v15l-6 12-9 8-11 4h-12l-11-4-9-8-6-12v-16l4-10 6-7 10-6z"></path><path transform="translate(1528,1696)" d="m0 0h16l9 4 8 7 5 8 2 6v15l-6 12-9 8-11 4h-12l-11-4-8-7-6-10-1-3v-16l4-9 5-7 11-7z"></path></svg>