<svg xmlns="http://www.w3.org/2000/svg" viewBox="0 0 2048 2048" width="512" height="512"><path transform="translate(0,767)" d="m0 0h2048v886l-2 2-5 24-7 24-8 20-8 16-9 16-11 16-8 10-12 14-16 16-11 9-13 10-17 11-27 14-20 8-24 7-25 5-18 2-19 1h-1517l-32-1-29-4-17-4-16-5-21-8-17-8-17-10-12-8-14-11-12-11-8-7-15-16-12-15-10-15-10-17-10-21-8-22-6-23-4-20-1-4zm495 342-79 1-16 3-17 8-12 9-11 11-8 12-6 14-3 11-1 6v21l3 14 5 13 7 12 11 12 9 8 16 9 13 4 11 2h445l15-3 13-5 11-6 11-9 7-7 9-14 6-13 3-12 1-7v-16l-3-16-5-13-6-11-8-10-9-9-14-9-11-5-11-3-7-1-79-1z"></path><path transform="translate(249,170)" d="m0 0h1548l25 2 23 4 25 7 21 8 17 8 22 13 19 14 15 13 20 20 9 11 11 15 8 13 8 14 8 17 8 21 7 26 3 15h2v207h-2047l-1-1v-199l6-26 6-23 10-25 11-22 9-14 12-17 13-15 12-13 8-7 13-11 18-13 15-9 19-10 20-8 18-6 27-6 16-2z"></path></svg>